# xmcd CD database file
# Copyright (C) 1993-1996 Ti Kan
#
# Track frame offsets:
#	150
#	11567
#	18890
#	28084
#	37022
#	42549
#	56531
#	67771
#	78474
#	86257
#
# Disc length: 1310 seconds
#
# Revision: 1
# Processed by: cddbd v1.4b41PL1 Copyright (c) Steve Scherf et al.
# Submitted via: CDValet v3.01 - Copyright (c) 1997 Greg Leichner
#
DISCID=71051c0a
DTITLE=George Jones - Your Tender Years
DYEAR=1900
DGENRE=
TTITLE0=Your Tender Years
TTITLE1=Ragged, But Right
TTITLE2=Open Pit Mine
TTITLE3=Yes, I Know Why
TTITLE4=World Of Forgotten People
TTITLE5=Jonesy
TTITLE6=Liberty
TTITLE7=I Can't Escape From You
TTITLE8=From Now On All My Friends Are Gonna Be Strangers
TTITLE9=Things Have Gone To Pieces
EXTD=
EXTT0=
EXTT1=
EXTT2=
EXTT3=
EXTT4=
EXTT5=
EXTT6=
EXTT7=
EXTT8=
EXTT9=
PLAYORDER=
